<?xml version="1.0" encoding="utf-8"?>
<!-- Generator: Adobe Illustrator 23.0.4, SVG Export Plug-In . SVG Version: 6.00 Build 0)  -->
<svg version="1.1" id="Layer_1" xmlns="http://www.w3.org/2000/svg" xmlns:xlink="http://www.w3.org/1999/xlink" x="0px" y="0px"
	 viewBox="0 0 22 20" style="enable-background:new 0 0 22 20;" xml:space="preserve">
<style type="text/css">
	.st0{fill:#74AE43;}
	.st1{filter:url(#Adobe_OpacityMaskFilter);}
	.st2{fill-rule:evenodd;clip-rule:evenodd;fill:#FFFFFF;}
	.st3{mask:url(#mask-2_1_);}
	.st4{fill-rule:evenodd;clip-rule:evenodd;fill:#4D72AA;}
</style>
<title>Group</title>
<desc>Created with Sketch.</desc>
<g id="Job-Manager">
	<g id="JM---Details-page" transform="translate(-1026.000000, -458.000000)">
		<g id="Group" transform="translate(1026.000000, 458.000000)">
			<path id="Combined-Shape" class="st0" d="M16.2,15.7v2.2c0,0.7-0.5,1.2-1.2,1.2H2c-0.7,0-1.2-0.6-1.2-1.2V2.1
				c0-0.7,0.5-1.2,1.2-1.2h9l1.9,1.9c-0.4,0.2-0.8,0.4-1.2,0.6l-0.9-0.9v1.6c-0.2,0.2-0.3,0.4-0.5,0.5C10.1,4.7,10,4.7,9.8,4.8V2.2
				H2.1v15.6h12.8v-2.1H16.2z"/>
			<g id="cloud" transform="translate(8.000000, 4.000000)">
				<g id="Shape">
				</g>
				<defs>
					<filter id="Adobe_OpacityMaskFilter" filterUnits="userSpaceOnUse" x="-1" y="-3" width="16" height="16">
						<feColorMatrix  type="matrix" values="1 0 0 0 0  0 1 0 0 0  0 0 1 0 0  0 0 0 1 0"/>
					</filter>
				</defs>
				<mask maskUnits="userSpaceOnUse" x="-1" y="-3" width="16" height="16" id="mask-2_1_">
					<g class="st1">
						<path id="path-1_1_" class="st2" d="M10.7,9.7H4C2,9.7,0.3,8,0.3,6c0-1.8,1.4-3.4,3.2-3.6c0.7-1.3,2-2,3.5-2
							c2,0,3.6,1.5,3.9,3.3c1.5,0.1,2.7,1.4,2.7,3C13.7,8.3,12.3,9.7,10.7,9.7z M7,1.7c-1.1,0-2,0.6-2.4,1.6L4.4,3.7L4,3.7
							C2.7,3.7,1.7,4.7,1.7,6c0,1.3,1,2.3,2.3,2.3h6.7c0.9,0,1.7-0.7,1.7-1.7S11.6,5,10.7,5h-1V4.3C9.7,2.9,8.5,1.7,7,1.7z"/>
					</g>
				</mask>
				<g class="st3">
					<g id="Rectangle" transform="translate(-1.000000, -3.000000)">
						<rect class="st4" width="16" height="16"/>
					</g>
				</g>
			</g>
		</g>
	</g>
</g>
</svg>
