<?xml version="1.0" encoding="UTF-8"?>
<svg width="24px" height="24px" viewBox="0 0 24 24" version="1.1" xmlns="http://www.w3.org/2000/svg" xmlns:xlink="http://www.w3.org/1999/xlink">
    <!-- Generator: Sketch 55.2 (78181) - https://sketchapp.com -->
    <title>icon_cloud-file</title>
    <desc>Created with Sketch.</desc>
    <defs>
        <path d="M10.6666667,9.66666667 L4,9.66666667 C1.98,9.66666667 0.333333333,8.02 0.333333333,6 C0.333333333,4.16 1.72666667,2.60666667 3.52,2.37333333 C4.22,1.12 5.54666667,0.333333333 7,0.333333333 C8.98,0.333333333 10.6333333,1.78666667 10.9466667,3.68 C12.4733333,3.82 13.6666667,5.10666667 13.6666667,6.66666667 C13.6666667,8.32 12.32,9.66666667 10.6666667,9.66666667 Z M7,1.66666667 C5.94,1.66666667 4.98,2.29333333 4.55333333,3.27333333 L4.38666667,3.66666667 L3.96,3.67333333 C2.69333333,3.69333333 1.66666667,4.74 1.66666667,6 C1.66666667,7.28666667 2.71333333,8.33333333 4,8.33333333 L10.6666667,8.33333333 C11.5866667,8.33333333 12.3333333,7.58666667 12.3333333,6.66666667 C12.3333333,5.74666667 11.5866667,5 10.6666667,5 L9.66666667,5 L9.66666667,4.33333333 C9.66666667,2.86 8.47333333,1.66666667 7,1.66666667 Z" id="path-1"></path>
    </defs>
    <g id="icon_cloud-file" stroke="none" stroke-width="1" fill="none" fill-rule="evenodd">
        <g id="Group" transform="translate(2.000000, 2.000000)">
            <path d="M16.1665037,15.6666667 L16.1665037,17.8412649 C16.1772436,18.5115322 15.6557131,19.0655938 14.9973619,19.0833333 L2.00263809,19.0833333 C1.34428688,19.0655938 0.82275635,18.5115322 0.833496271,17.8412649 L0.833496271,2.11706845 C0.82275635,1.44680111 1.34428688,0.892739487 2.00263809,0.875 L10.985225,0.875 L12.8524025,2.73103432 C12.429791,2.8933035 12.0275593,3.1027618 11.6533592,3.35482387 L10.7935624,2.49424107 L10.7935624,4.05833707 C10.6216216,4.22802669 10.4593973,4.40871785 10.3080428,4.59971942 C10.1271216,4.65639573 9.95019734,4.72191014 9.77775062,4.79573067 L9.77775062,2.17559524 L2.11124689,2.17559524 L2.11124689,17.7827381 L14.8887531,17.7827381 L14.8887531,15.6666667 L16.1665037,15.6666667 Z" id="Combined-Shape" fill="#000000" fill-rule="nonzero" opacity="0.5"></path>
            <g id="cloud" transform="translate(8.000000, 4.000000)">
                <mask id="mask-2" fill="white">
                    <use xlink:href="#path-1"></use>
                </mask>
                <g id="Shape" fill-rule="nonzero"></g>
                <g id="c/#000000/1" opacity="0.800000012" mask="url(#mask-2)" fill="#000000">
                    <g transform="translate(-1.000000, -3.000000)" id="Rectangle">
                        <rect x="0" y="0" width="16" height="16"></rect>
                    </g>
                </g>
            </g>
        </g>
    </g>
</svg>