<?xml version="1.0" encoding="utf-8"?>
<!-- Generator: Adobe Illustrator 23.0.4, SVG Export Plug-In . SVG Version: 6.00 Build 0)  -->
<svg version="1.1" id="Layer_1" xmlns="http://www.w3.org/2000/svg" xmlns:xlink="http://www.w3.org/1999/xlink" x="0px" y="0px"
	 viewBox="0 0 21.3 19.1" style="enable-background:new 0 0 21.3 19.1;" xml:space="preserve">
<style type="text/css">
	.st5{fill:#CCCCCC;}
</style>
<title>Group</title>
<desc>Created with Sketch.</desc>
<g>
	<path class="st5" d="M14.4,17.2H1.6V1.6h7.7v2.6C9.5,4.1,9.6,4.1,9.8,4c0.2-0.1,0.3-0.3,0.5-0.5V1.9l0.9,0.9
		c0.4-0.2,0.8-0.4,1.2-0.6l-1.9-1.9h-9c-0.7,0-1.2,0.5-1.2,1.2v15.8c0,0.6,0.5,1.2,1.2,1.2h13c0.7,0,1.2-0.5,1.2-1.2v-2.2h-1.3V17.2
		z"/>
	<path class="st5" d="M18.4,7.1c-0.3-1.8-1.9-3.3-3.9-3.3c-1.5,0-2.8,0.7-3.5,2C9.2,6,7.8,7.6,7.8,9.4c0,2,1.7,3.7,3.7,3.7h6.7
		c1.6,0,3-1.4,2.9-3C21.1,8.5,19.9,7.2,18.4,7.1z M18.2,11.7h-6.7c-1.3,0-2.3-1-2.3-2.3c0-1.3,1-2.3,2.3-2.3h0.4l0.2-0.4
		c0.4-1,1.3-1.6,2.4-1.6c1.5,0,2.7,1.2,2.7,2.6v0.7h1c0.9,0,1.7,0.6,1.7,1.6S19.1,11.7,18.2,11.7z"/>
</g>
</svg>
