<?xml version="1.0" encoding="utf-8"?>
<!-- Generator: Adobe Illustrator 22.1.0, SVG Export Plug-In . SVG Version: 6.00 Build 0)  -->
<svg version="1.1" id="Layer_1" xmlns="http://www.w3.org/2000/svg" xmlns:xlink="http://www.w3.org/1999/xlink" x="0px" y="0px"
	 viewBox="0 0 182.5 200" style="enable-background:new 0 0 182.5 200;" xml:space="preserve">
<style type="text/css">
	.st0{fill:#9B9B9B;}
	.st1{fill:#9B9B9B;stroke:#979797;stroke-width:9.6784;stroke-linecap:round;stroke-linejoin:round;}
</style>
<g>
	<path class="st0" d="M177.5,86.5c5.7,37.7-13.9,74.7-48.2,91.3s-75.4,9-101.5-18.8v33.7c0,3.2-2.6,5.8-5.8,5.8s-5.8-2.6-5.8-5.8
		v-52.3h52.3c3.2,0,5.8,2.6,5.8,5.8c0,3.2-2.6,5.8-5.8,5.8H37.3c21.4,21.9,54,28.7,82.4,17.2c28.4-11.5,47-39.1,47.1-69.8
		c0-3.8-0.3-7.5-0.9-11.2c-0.5-3.2,1.8-6.2,5-6.6C174,81,177,83.3,177.5,86.5z M161.3,1c3.1,0.2,5.5,2.7,5.5,5.8v52.3h-51.9
		c-3.2,0-5.8-2.6-5.8-5.8s2.6-5.8,5.8-5.8h31.2c-14.2-15.1-34.1-23.7-54.8-23.6c-41.7,0-75.5,33.8-75.5,75.5c0,4.2,0.4,8.4,1,12.6
		c0.5,3.2-1.6,6.1-4.8,6.7h-0.9c-2.9,0-5.3-2-5.8-4.9c-0.8-4.8-1.2-9.6-1.2-14.4C4.1,63.4,26.1,31.1,59.5,18.1s71.5-4.1,95.6,22.5
		V6.8C155.3,3.5,158.1,1,161.3,1z"/>
	<path class="st1" d="M9.1,5.8l164.5,183.9"/>
</g>
</svg>
