<?xml version="1.0" encoding="utf-8"?>
<!-- Generator: Adobe Illustrator 23.0.2, SVG Export Plug-In . SVG Version: 6.00 Build 0)  -->
<svg version="1.1" id="Layer_1" xmlns="http://www.w3.org/2000/svg" xmlns:xlink="http://www.w3.org/1999/xlink" x="0px" y="0px"
	 viewBox="0 0 104 66" style="enable-background:new 0 0 104 66;" xml:space="preserve">
<style type="text/css">
	.st0{opacity:0.2761;}
	.st1{fill-rule:evenodd;clip-rule:evenodd;fill:#74AE43;stroke:#B3D398;stroke-width:0.8;}
</style>
<title>Group</title>
<desc>Created with Sketch.</desc>
<g id="Symbols" class="st0">
	<g id="Header-4">
		<g id="Group-2">
			
				<g id="Group" transform="translate(476.500000, 13.500000) rotate(180.000000) translate(-476.500000, -13.500000) translate(-450.000000, -89.000000)">
				<g transform="translate(1300.000000, 43.000000)">
					<path id="Fill-1" class="st1" d="M96,27.8v8.4c0,1,0.6,1.9,1.5,2.4l7.5,4.2c0.9,0.5,2,0.5,2.9,0l7.5-4.2
						c0.9-0.5,1.5-1.4,1.5-2.4v-8.4c0-1-0.6-1.9-1.5-2.4l-7.5-4.2c-0.9-0.5-2-0.5-2.9,0l-7.5,4.2C96.6,25.9,96,26.8,96,27.8"/>
					<path class="st1" d="M24,27.8v8.4c0,1,0.6,1.9,1.5,2.4l7.5,4.2c0.9,0.5,2,0.5,2.9,0l7.5-4.2c0.9-0.5,1.5-1.4,1.5-2.4v-8.4
						c0-1-0.6-1.9-1.5-2.4l-7.5-4.2c-0.9-0.5-2-0.5-2.9,0l-7.5,4.2C24.6,25.9,24,26.8,24,27.8"/>
					<path class="st1" d="M0,27.8v8.4c0,1,0.6,1.9,1.5,2.4L9,42.8c0.9,0.5,2,0.5,2.9,0l7.5-4.2c0.9-0.5,1.5-1.4,1.5-2.4v-8.4
						c0-1-0.6-1.9-1.5-2.4l-7.5-4.2c-0.9-0.5-2-0.5-2.9,0l-7.5,4.2C0.6,25.9,0,26.8,0,27.8"/>
					<path class="st1" d="M12,47.8v8.4c0,1,0.6,1.9,1.5,2.4l7.5,4.2c0.9,0.5,2,0.5,2.9,0l7.5-4.2c0.9-0.5,1.5-1.4,1.5-2.4v-8.4
						c0-1-0.6-1.9-1.5-2.4l-7.5-4.2c-0.9-0.5-2-0.5-2.9,0l-7.5,4.2C12.6,45.9,12,46.8,12,47.8"/>
					<path class="st1" d="M36,47.8v8.4c0,1,0.6,1.9,1.5,2.4l7.5,4.2c0.9,0.5,2,0.5,2.9,0l7.5-4.2c0.9-0.5,1.5-1.4,1.5-2.4v-8.4
						c0-1-0.6-1.9-1.5-2.4l-7.5-4.2c-0.9-0.5-2-0.5-2.9,0l-7.5,4.2C36.6,45.9,36,46.8,36,47.8"/>
					<path class="st1" d="M72,67.8v8.4c0,1,0.6,1.9,1.5,2.4l7.5,4.2c0.9,0.5,2,0.5,2.9,0l7.5-4.2c0.9-0.5,1.5-1.4,1.5-2.4v-8.4
						c0-1-0.6-1.9-1.5-2.4l-7.5-4.2c-0.9-0.5-2-0.5-2.9,0l-7.5,4.2C72.6,65.9,72,66.8,72,67.8"/>
					<path class="st1" d="M96,67.8v8.4c0,1,0.6,1.9,1.5,2.4l7.5,4.2c0.9,0.5,2,0.5,2.9,0l7.5-4.2c0.9-0.5,1.5-1.4,1.5-2.4v-8.4
						c0-1-0.6-1.9-1.5-2.4l-7.5-4.2c-0.9-0.5-2-0.5-2.9,0l-7.5,4.2C96.6,65.9,96,66.8,96,67.8"/>
					<path class="st1" d="M84,47.8v8.4c0,1,0.6,1.9,1.5,2.4l7.5,4.2c0.9,0.5,2,0.5,2.9,0l7.5-4.2c0.9-0.5,1.5-1.4,1.5-2.4v-8.4
						c0-1-0.6-1.9-1.5-2.4l-7.5-4.2c-0.9-0.5-2-0.5-2.9,0l-7.5,4.2C84.6,45.9,84,46.8,84,47.8"/>
					<path class="st1" d="M48,67.8v8.4c0,1,0.6,1.9,1.5,2.4l7.5,4.2c0.9,0.5,2,0.5,2.9,0l7.5-4.2c0.9-0.5,1.5-1.4,1.5-2.4v-8.4
						c0-1-0.6-1.9-1.5-2.4l-7.5-4.2c-0.9-0.5-2-0.5-2.9,0l-7.5,4.2C48.6,65.9,48,66.8,48,67.8"/>
					<path class="st1" d="M24,67.8v8.4c0,1,0.6,1.9,1.5,2.4l7.5,4.2c0.9,0.5,2,0.5,2.9,0l7.5-4.2c0.9-0.5,1.5-1.4,1.5-2.4v-8.4
						c0-1-0.6-1.9-1.5-2.4l-7.5-4.2c-0.9-0.5-2-0.5-2.9,0l-7.5,4.2C24.6,65.9,24,66.8,24,67.8"/>
					<path class="st1" d="M0,67.8v8.4c0,1,0.6,1.9,1.5,2.4L9,82.8c0.9,0.5,2,0.5,2.9,0l7.5-4.2c0.9-0.5,1.5-1.4,1.5-2.4v-8.4
						c0-1-0.6-1.9-1.5-2.4l-7.5-4.2c-0.9-0.5-2-0.5-2.9,0l-7.5,4.2C0.6,65.9,0,66.8,0,67.8"/>
					<path class="st1" d="M84,7.8v8.4c0,1,0.6,1.9,1.5,2.4l7.5,4.2c0.9,0.5,2,0.5,2.9,0l7.5-4.2c0.9-0.5,1.5-1.4,1.5-2.4V7.8
						c0-1-0.6-1.9-1.5-2.4l-7.5-4.2c-0.9-0.5-2-0.5-2.9,0l-7.5,4.2C84.6,5.9,84,6.8,84,7.8"/>
					<path class="st1" d="M60,7.8v8.4c0,1,0.6,1.9,1.5,2.4l7.5,4.2c0.9,0.5,2,0.5,2.9,0l7.5-4.2c0.9-0.5,1.5-1.4,1.5-2.4V7.8
						c0-1-0.6-1.9-1.5-2.4l-7.5-4.2c-0.9-0.5-2-0.5-2.9,0l-7.5,4.2C60.6,5.9,60,6.8,60,7.8"/>
					<path class="st1" d="M36,7v8.4c0,1,0.6,1.9,1.5,2.4L45,22c0.9,0.5,2,0.5,2.9,0l7.5-4.2c0.9-0.5,1.5-1.4,1.5-2.4V7
						c0-1-0.6-1.9-1.5-2.4l-7.5-4.2c-0.9-0.5-2-0.5-2.9,0l-7.5,4.2C36.6,5.1,36,6,36,7"/>
				</g>
			</g>
		</g>
	</g>
</g>
</svg>
