<?xml version="1.0" encoding="utf-8"?>
<!-- Generator: Adobe Illustrator 23.0.2, SVG Export Plug-In . SVG Version: 6.00 Build 0)  -->
<svg version="1.1" id="Layer_1" xmlns="http://www.w3.org/2000/svg" xmlns:xlink="http://www.w3.org/1999/xlink" x="0px" y="0px"
	 viewBox="0 0 64 68" style="enable-background:new 0 0 64 68;" xml:space="preserve">
<style type="text/css">
	.st0{fill-rule:evenodd;clip-rule:evenodd;fill:#349348;}
	.st1{fill-rule:evenodd;clip-rule:evenodd;fill:#73AD43;}
	.st2{fill-rule:evenodd;clip-rule:evenodd;fill:#AFD139;}
	.st3{fill-rule:evenodd;clip-rule:evenodd;fill:#FEFEFE;}
</style>
<title>Terra Logo</title>
<desc>Created with Sketch.</desc>
<g id="Symbols">
	<g id="Header-4" transform="translate(-3.000000, 2.000000)">
		<g id="Terra-Logo" transform="translate(13.000000, 8.000000)">
			<g id="Group-17">
				<g id="Fill-1">
					
						<image style="overflow:visible;" width="68" height="72" xlink:href="694C2E1624E7426A.png"  transform="matrix(1 0 0 1 -12 -12)">
					</image>
					<g>
						<path class="st0" d="M0,15v18c0,2.2,1.2,4.1,3.1,5.2l15.8,9c1.9,1.1,4.2,1.1,6.1,0l15.8-9c1.9-1.1,3.1-3.1,3.1-5.2V15
							c0-2.2-1.2-4.1-3.1-5.2l-15.8-9c-1.9-1.1-4.2-1.1-6.1,0l-15.8,9C1.2,10.9,0,12.9,0,15"/>
					</g>
				</g>
				<path id="Fill-3" class="st1" d="M5.5,11.5L1.3,26.5c-0.5,1.8,0,3.7,1.4,5.1l11.2,11.1c1.3,1.3,3.3,1.9,5.2,1.4l15.4-4
					c1.8-0.5,3.3-1.9,3.8-3.7l4.2-15.1c0.5-1.8,0-3.7-1.4-5.1L29.9,5.2c-1.3-1.3-3.3-1.9-5.2-1.4l-15.4,4C7.5,8.3,6,9.7,5.5,11.5"/>
				<path id="Fill-5" class="st2" d="M20.1,39.7c-0.8-0.3-1.8-0.6-2.8-0.9C6.9,35.7,8.8,37.7,6.4,27.4C4,17.1,3.1,19.7,11,12.5
					c7.9-7.2,5.1-6.6,15.5-3.5c10.3,3.1,8.4,1.1,10.9,11.4c2.4,10.3,3.3,7.7-4.6,14.9c-6.4,5.9-5.8,6.6-10.8,5"/>
				<path id="Fill-7" class="st3" d="M13.2,18.4H7.8c-0.2,0-0.3,0.1-0.3,0.3v0.8c0,0.2,0.1,0.3,0.3,0.3h1.8c0.1,0,0.1,0.1,0.1,0.2
					v8.5c0,0.2,0.1,0.3,0.3,0.3H11c0.2,0,0.2-0.1,0.2-0.3v-8.5c0-0.1,0.1-0.2,0.2-0.2h1.8c0.2,0,0.3-0.1,0.3-0.3v-0.8
					C13.5,18.5,13.4,18.4,13.2,18.4"/>
				<path id="Fill-9" class="st3" d="M18.1,24.1c0,0.1,0,0.2-0.1,0.2h-2.8c-0.1,0-0.1-0.1-0.1-0.2v-1c0-0.4,0.1-0.7,0.2-0.9
					c0.2-0.2,0.4-0.3,0.8-0.3h1c0.4,0,0.6,0.1,0.8,0.3c0.2,0.2,0.2,0.5,0.2,0.9V24.1z M17.2,20.5h-1.4c-0.7,0-1.3,0.2-1.7,0.6
					c-0.4,0.4-0.6,1-0.6,1.8v3.2c0,0.8,0.2,1.4,0.6,1.8c0.4,0.4,1,0.7,1.7,0.7h3.4c0.2,0,0.3-0.1,0.3-0.3v-0.8
					c0-0.2-0.1-0.3-0.3-0.3H16c-0.7,0-1.1-0.4-1.1-1.2v-0.7c0-0.1,0.1-0.2,0.2-0.2h4.1c0.2,0,0.3-0.1,0.3-0.3v-2
					c0-0.8-0.2-1.4-0.6-1.8C18.5,20.7,17.9,20.5,17.2,20.5L17.2,20.5z"/>
				<path id="Fill-11" class="st3" d="M34.4,27.2c0,0.1-0.1,0.1-0.2,0.1h-1.8c-0.4,0-0.7-0.1-0.9-0.2c-0.2-0.2-0.3-0.5-0.3-0.8v-0.5
					c0-0.4,0.1-0.6,0.3-0.8c0.2-0.2,0.5-0.2,0.9-0.2h1.8c0.1,0,0.2,0,0.2,0.1V27.2z M35.2,21.2c-0.4-0.4-1-0.7-1.7-0.7h-2.9
					c-0.2,0-0.3,0.1-0.3,0.3v0.8c0,0.2,0.1,0.3,0.3,0.3h2.7c0.7,0,1.1,0.4,1.1,1.2v0.6h-2c-0.8,0-1.4,0.2-1.9,0.6
					c-0.4,0.4-0.7,0.9-0.7,1.7v0.6c0,0.7,0.2,1.3,0.7,1.6c0.4,0.4,1.1,0.6,1.9,0.6h3.4c0-0.5,0-1.4,0-1.5v-1v-2.3V23
					C35.8,22.2,35.6,21.6,35.2,21.2L35.2,21.2z"/>
				<path id="Fill-13" class="st3" d="M24.3,20.5h-0.5c-0.3,0-0.7,0.1-0.9,0.2c-0.3,0.2-0.5,0.4-0.6,0.6h-0.1v-0.6
					c0-0.2-0.1-0.3-0.2-0.3H21c-0.2,0-0.2,0.1-0.2,0.3v7.6c0,0.2,0.1,0.3,0.2,0.3h0.9c0.2,0,0.2-0.1,0.2-0.3v-5.1
					c0-1,0.4-1.5,1.2-1.5h0.9c0.2,0,0.2-0.1,0.2-0.3v-0.8C24.5,20.6,24.4,20.5,24.3,20.5"/>
				<path id="Fill-15" class="st3" d="M29,20.5h-0.5c-0.3,0-0.7,0.1-0.9,0.2c-0.3,0.2-0.5,0.4-0.6,0.6h-0.1v-0.6
					c0-0.2-0.1-0.3-0.2-0.3h-0.9c-0.2,0-0.2,0.1-0.2,0.3v7.6c0,0.2,0.1,0.3,0.2,0.3h0.9c0.2,0,0.2-0.1,0.2-0.3v-5.1
					c0-1,0.4-1.5,1.2-1.5H29c0.2,0,0.2-0.1,0.2-0.3v-0.8C29.3,20.6,29.2,20.5,29,20.5"/>
			</g>
		</g>
	</g>
</g>
</svg>
